<?xml version="1.0" encoding="UTF-8" standalone="no"?>
<!-- Created with Inkscape (http://www.inkscape.org/) -->

<svg
   xmlns:dc="http://purl.org/dc/elements/1.1/"
   xmlns:cc="http://creativecommons.org/ns#"
   xmlns:rdf="http://www.w3.org/1999/02/22-rdf-syntax-ns#"
   xmlns:svg="http://www.w3.org/2000/svg"
   xmlns="http://www.w3.org/2000/svg"
   xmlns:sodipodi="http://sodipodi.sourceforge.net/DTD/sodipodi-0.dtd"
   xmlns:inkscape="http://www.inkscape.org/namespaces/inkscape"
   version="1.1"
   id="svg2"
   xml:space="preserve"
   width="469.14667"
   height="173.16"
   viewBox="0 0 469.14667 173.16"
   sodipodi:docname="lgdv-en-cl.svg"
   inkscape:version="0.92.3 (2405546, 2018-03-11)"><metadata
     id="metadata8"><rdf:RDF><cc:Work
         rdf:about=""><dc:format>image/svg+xml</dc:format><dc:type
           rdf:resource="http://purl.org/dc/dcmitype/StillImage" /><dc:title></dc:title></cc:Work></rdf:RDF></metadata><defs
     id="defs6" /><sodipodi:namedview
     pagecolor="#ffffff"
     bordercolor="#666666"
     borderopacity="1"
     objecttolerance="10"
     gridtolerance="10"
     guidetolerance="10"
     inkscape:pageopacity="0"
     inkscape:pageshadow="2"
     inkscape:window-width="2560"
     inkscape:window-height="1376"
     id="namedview4"
     showgrid="false"
     inkscape:zoom="1.513386"
     inkscape:cx="226.53179"
     inkscape:cy="73.136301"
     inkscape:window-x="0"
     inkscape:window-y="27"
     inkscape:window-maximized="1"
     inkscape:current-layer="g10" /><g
     id="g10"
     inkscape:groupmode="layer"
     inkscape:label="ink_ext_XXXXXX"
     transform="matrix(1.3333333,0,0,-1.3333333,0,173.16)"><g
       id="g12"
       transform="scale(0.1)"><path
         d="M 99.2031,44.8398 115.211,40.75 C 111.859,27.5117 105.816,17.4219 97.125,10.4219 88.4023,3.46875 77.7734,0 65.1719,0 52.1484,0 41.5742,2.67188 33.418,8.01172 25.2578,13.3711 19.043,21.1289 14.793,31.2617 10.5469,41.4297 8.41406,52.3281 8.41406,63.9805 c 0,12.6797 2.38674,23.75 7.19534,33.2109 4.8086,9.4496 11.6484,16.6286 20.5351,21.5466 8.8594,4.91 18.6211,7.352 29.2813,7.352 12.0937,0 22.2461,-3.09 30.4883,-9.309 8.2419,-6.222 13.9809,-14.929 17.2109,-26.2107 L 97.4063,86.8281 c -2.8165,8.8907 -6.8633,15.3319 -12.211,19.3829 -5.3125,4.07 -12.0117,6.09 -20.1055,6.09 -9.2851,0 -17.0234,-2.25 -23.2617,-6.742 C 35.582,101.051 31.1953,95.0313 28.6914,87.4492 26.1602,79.8984 24.8945,72.0781 24.8945,64.0586 c 0,-10.3867 1.4883,-19.418 4.4766,-27.168 3.0078,-7.7304 7.6445,-13.5195 13.9727,-17.3515 6.3281,-3.8282 13.164,-5.7383 20.5351,-5.7383 8.9453,0 16.5078,2.6211 22.7266,7.8203 6.2109,5.207 10.4062,12.957 12.5976,23.2187"
         style="fill:#161315;fill-opacity:1;fill-rule:nonzero;stroke:none"
         id="path14"
         inkscape:connector-curvature="0" /><path
         d="m 146.516,61.2109 c 0,-14.6914 3.906,-26.2617 11.726,-34.7109 7.848,-8.4609 17.66,-12.6992 29.473,-12.6992 12.043,0 21.941,4.2578 29.707,12.8203 7.758,8.5273 11.672,20.6602 11.672,36.3594 0,9.8984 -1.688,18.5586 -5.008,25.9804 -3.32,7.3985 -8.184,13.1411 -14.57,17.2301 -6.411,4.059 -13.582,6.11 -21.543,6.11 -11.336,0 -21.071,-3.93 -29.223,-11.789 -8.16,-7.8401 -12.234,-20.9612 -12.234,-39.3011 z m -16.481,0.2696 c 0,20.2304 5.371,36.0703 16.141,47.5195 10.773,11.441 24.668,17.18 41.711,17.18 11.136,0 21.207,-2.7 30.156,-8.059 8.937,-5.402 15.773,-12.891 20.473,-22.5194 4.699,-9.5899 7.031,-20.5313 7.031,-32.711 0,-12.3789 -2.445,-23.4414 -7.399,-33.1914 C 233.199,19.9414 226.195,12.5508 217.141,7.53125 208.059,2.5 198.289,0 187.805,0 176.41,0 166.262,2.76172 157.313,8.32031 148.34,13.8594 141.563,21.4414 136.949,31.0313 c -4.609,9.5703 -6.914,19.7382 -6.914,30.4492 v 0"
         style="fill:#161315;fill-opacity:1;fill-rule:nonzero;stroke:none"
         id="path16"
         inkscape:connector-curvature="0" /><path
         d="M 265.66,2.07813 V 124.02 h 24.082 l 28.574,-86.3403 c 2.641,-8.0391 4.579,-14.0508 5.766,-18.0586 1.379,4.4375 3.516,10.957 6.441,19.5586 l 28.911,84.8403 h 21.519 V 2.07813 H 365.535 V 104.141 L 330.434,2.07813 H 316.008 L 281.074,105.871 V 2.07813 H 265.66"
         style="fill:#161315;fill-opacity:1;fill-rule:nonzero;stroke:none"
         id="path18"
         inkscape:connector-curvature="0" /><path
         d="m 422.719,66.0508 h 31.246 c 10.328,0 17.668,1.918 21.996,5.8203 4.332,3.8906 6.496,9.3281 6.496,16.3789 0,5.1016 -1.262,9.4805 -3.824,13.109 -2.559,3.629 -5.906,6.02 -10.098,7.192 -2.695,0.699 -7.652,1.07 -14.906,1.07 h -30.91 z M 406.742,2.07813 V 124.02 h 45.567 c 8.011,0 14.144,-0.391 18.367,-1.161 5.933,-1 10.91,-2.91 14.933,-5.718 3.996,-2.77 7.227,-6.719 9.672,-11.75 2.453,-5.039 3.66,-10.5902 3.66,-16.641 0,-10.3594 -3.261,-19.1602 -9.785,-26.3281 -6.558,-7.1602 -18.371,-10.7735 -35.441,-10.7735 H 422.719 V 2.07813 h -15.977 v 0"
         style="fill:#161315;fill-opacity:1;fill-rule:nonzero;stroke:none"
         id="path20"
         inkscape:connector-curvature="0" /><path
         d="M 598.563,124.02 H 614.57 V 53.5508 c 0,-12.2422 -1.382,-21.9727 -4.136,-29.1797 C 607.676,17.1484 602.727,11.3008 595.559,6.78906 588.379,2.25 578.988,0 567.344,0 556.035,0 546.758,1.96875 539.578,5.91016 532.383,9.83203 527.234,15.5391 524.172,23 c -3.098,7.4609 -4.617,17.6406 -4.617,30.5508 V 124.02 h 15.976 V 53.6406 c 0,-10.6015 0.989,-18.4023 2.926,-23.3906 1.941,-5.0312 5.316,-8.8906 10.043,-11.6211 4.754,-2.7187 10.578,-4.0898 17.438,-4.0898 11.757,0 20.136,2.6992 25.148,8.0898 4.977,5.3711 7.477,15.6992 7.477,31.0117 V 124.02"
         style="fill:#161315;fill-opacity:1;fill-rule:nonzero;stroke:none"
         id="path22"
         inkscape:connector-curvature="0" /><path
         d="M 671.926,2.07813 V 109.621 h -39.801 v 14.399 h 95.742 V 109.621 H 687.898 V 2.07813 h -15.972"
         style="fill:#161315;fill-opacity:1;fill-rule:nonzero;stroke:none"
         id="path24"
         inkscape:connector-curvature="0" /><path
         d="M 744.602,2.07813 V 124.02 h 87.332 v -14.399 h -71.36 V 72.2891 h 66.828 V 57.9805 h -66.828 v -41.5 h 74.168 V 2.07813 h -90.14"
         style="fill:#161315;fill-opacity:1;fill-rule:nonzero;stroke:none"
         id="path26"
         inkscape:connector-curvature="0" /><path
         d="m 873.051,70.1914 h 34.375 c 7.285,0 13.023,0.7578 17.125,2.2969 4.137,1.5312 7.262,3.9726 9.398,7.332 2.137,3.3399 3.203,6.9688 3.203,10.918 0,5.7734 -2.054,10.4997 -6.214,14.2227 -4.137,3.73 -10.688,5.57 -19.661,5.57 H 873.051 Z M 857.074,2.07813 V 124.02 h 53.555 c 10.773,0 18.957,-1.122 24.559,-3.29 5.593,-2.191 10.066,-6.05 13.441,-11.589 3.348,-5.563 5.008,-11.6918 5.008,-18.4027 0,-8.6602 -2.758,-15.918 -8.328,-21.8594 -5.539,-5.9375 -14.118,-9.707 -25.704,-11.3281 4.243,-2.0391 7.45,-4.0625 9.641,-6.0703 4.676,-4.3203 9.09,-9.7422 13.281,-16.211 L 963.535,2.07813 H 943.422 L 927.449,27.4492 c -4.668,7.3125 -8.523,12.9219 -11.554,16.7891 -3.012,3.8906 -5.715,6.6133 -8.102,8.1523 -2.395,1.5586 -4.813,2.6407 -7.285,3.2696 -1.832,0.3593 -4.785,0.5586 -8.922,0.5586 H 873.051 V 2.07813 h -15.977 v 0"
         style="fill:#161315;fill-opacity:1;fill-rule:nonzero;stroke:none"
         id="path28"
         inkscape:connector-curvature="0" /><path
         d="m 1082.11,49.9219 v 14.2695 l 51.17,0.0977 V 19.0586 C 1125.43,12.7305 1117.33,7.98047 1108.97,4.78125 1100.63,1.60156 1092.05,0 1083.27,0 c -11.87,0 -22.67,2.55859 -32.34,7.69922 -9.71,5.10938 -17.02,12.55078 -21.97,22.24218 -4.96,9.6992 -7.43,20.5391 -7.43,32.5195 0,11.8672 2.47,22.9375 7.4,33.2188 4.89,10.3083 11.98,17.9493 21.21,22.9493 9.22,4.961 19.85,7.461 31.89,7.461 8.72,0 16.62,-1.418 23.68,-4.281 7.06,-2.848 12.61,-6.821 16.6,-11.93 4.02,-5.109 7.06,-11.7501 9.17,-19.9571 l -14.43,-4.0117 c -1.83,6.2187 -4.08,11.1093 -6.75,14.6488 -2.7,3.562 -6.55,6.39 -11.56,8.531 -4.98,2.121 -10.55,3.211 -16.63,3.211 -7.31,0 -13.64,-1.141 -18.95,-3.379 -5.35,-2.25 -9.62,-5.203 -12.91,-8.871 -3.26,-3.6526 -5.8,-7.6604 -7.62,-12.0627 -3.07,-7.5274 -4.62,-15.6992 -4.62,-24.5274 0,-10.8711 1.86,-19.9609 5.57,-27.2812 3.72,-7.3281 9.12,-12.75 16.21,-16.3008 7.09,-3.5508 14.59,-5.3398 22.55,-5.3398 6.95,0 13.7,1.3711 20.28,4.0703 6.61,2.6601 11.59,5.5195 14.99,8.5898 v 22.7227 h -35.5"
         style="fill:#161315;fill-opacity:1;fill-rule:nonzero;stroke:none"
         id="path30"
         inkscape:connector-curvature="0" /><path
         d="m 1173.08,70.1914 h 34.37 c 7.29,0 13.02,0.7578 17.13,2.2969 4.14,1.5312 7.26,3.9726 9.39,7.332 2.14,3.3399 3.21,6.9688 3.21,10.918 0,5.7734 -2.05,10.4997 -6.21,14.2227 -4.14,3.73 -10.69,5.57 -19.67,5.57 h -38.22 z M 1157.1,2.07813 V 124.02 h 53.56 c 10.77,0 18.95,-1.122 24.55,-3.29 5.6,-2.191 10.07,-6.05 13.45,-11.589 3.35,-5.563 5,-11.6918 5,-18.4027 0,-8.6602 -2.75,-15.918 -8.32,-21.8594 -5.55,-5.9375 -14.12,-9.707 -25.71,-11.3281 4.25,-2.0391 7.45,-4.0625 9.65,-6.0703 4.67,-4.3203 9.08,-9.7422 13.27,-16.211 l 21.01,-33.19137 h -20.11 l -15.97,25.37107 c -4.67,7.3125 -8.52,12.9219 -11.56,16.7891 -3.01,3.8906 -5.71,6.6133 -8.1,8.1523 -2.39,1.5586 -4.81,2.6407 -7.29,3.2696 -1.82,0.3593 -4.78,0.5586 -8.91,0.5586 h -18.54 V 2.07813 h -15.98 v 0"
         style="fill:#161315;fill-opacity:1;fill-rule:nonzero;stroke:none"
         id="path32"
         inkscape:connector-curvature="0" /><path
         d="m 1300.3,52.1602 h 40.98 l -12.63,33.75 c -3.83,10.2617 -6.7,18.6918 -8.55,25.3008 -1.55,-7.84 -3.71,-15.5821 -6.53,-23.3126 z M 1265.45,2.07813 1311.86,124.02 h 17.21 L 1378.52,2.07813 h -18.23 L 1346.2,39.0195 h -50.52 L 1282.44,2.07813 h -16.99 v 0"
         style="fill:#161315;fill-opacity:1;fill-rule:nonzero;stroke:none"
         id="path34"
         inkscape:connector-curvature="0" /><path
         d="m 1407.26,66.0508 h 31.25 c 10.32,0 17.66,1.918 21.99,5.8203 4.34,3.8906 6.5,9.3281 6.5,16.3789 0,5.1016 -1.26,9.4805 -3.82,13.109 -2.56,3.629 -5.91,6.02 -10.1,7.192 -2.7,0.699 -7.65,1.07 -14.91,1.07 h -30.91 z M 1391.28,2.07813 V 124.02 h 45.57 c 8.02,0 14.15,-0.391 18.37,-1.161 5.93,-1 10.91,-2.91 14.94,-5.718 3.99,-2.77 7.22,-6.719 9.67,-11.75 2.45,-5.039 3.66,-10.5902 3.66,-16.641 0,-10.3594 -3.27,-19.1602 -9.79,-26.3281 -6.56,-7.1602 -18.37,-10.7735 -35.44,-10.7735 h -31 V 2.07813 h -15.98 v 0"
         style="fill:#161315;fill-opacity:1;fill-rule:nonzero;stroke:none"
         id="path36"
         inkscape:connector-curvature="0" /><path
         d="M 1504.33,2.07813 V 124.02 h 16 V 73.9414 h 62.78 V 124.02 h 16.01 V 2.07813 h -16.01 V 59.5391 h -62.78 V 2.07813 h -16"
         style="fill:#161315;fill-opacity:1;fill-rule:nonzero;stroke:none"
         id="path38"
         inkscape:connector-curvature="0" /><path
         d="M 1628.45,2.07813 V 124.02 h 15.98 V 2.07813 h -15.98"
         style="fill:#161315;fill-opacity:1;fill-rule:nonzero;stroke:none"
         id="path40"
         inkscape:connector-curvature="0" /><path
         d="m 1758.79,44.8398 16,-4.0898 C 1771.45,27.5117 1765.4,17.4219 1756.71,10.4219 1747.99,3.46875 1737.35,0 1724.76,0 c -13.03,0 -23.61,2.67188 -31.76,8.01172 -8.16,5.35938 -14.38,13.11718 -18.62,23.24998 -4.25,10.168 -6.38,21.0664 -6.38,32.7188 0,12.6797 2.38,23.75 7.2,33.2109 4.8,9.4496 11.64,16.6286 20.52,21.5466 8.87,4.91 18.63,7.352 29.29,7.352 12.09,0 22.25,-3.09 30.49,-9.309 8.24,-6.222 13.97,-14.929 17.21,-26.2107 l -15.72,-3.7422 c -2.82,8.8907 -6.86,15.3319 -12.21,19.3829 -5.32,4.07 -12.01,6.09 -20.11,6.09 -9.28,0 -17.02,-2.25 -23.26,-6.742 -6.24,-4.508 -10.63,-10.5277 -13.14,-18.1098 -2.53,-7.5508 -3.8,-15.3711 -3.8,-23.3906 0,-10.3867 1.5,-19.418 4.49,-27.168 3,-7.7304 7.64,-13.5195 13.97,-17.3515 6.33,-3.8282 13.16,-5.7383 20.53,-5.7383 8.94,0 16.51,2.6211 22.73,7.8203 6.21,5.207 10.4,12.957 12.6,23.2187"
         style="fill:#161315;fill-opacity:1;fill-rule:nonzero;stroke:none"
         id="path42"
         inkscape:connector-curvature="0" /><path
         d="m 1789.05,41.2617 15.08,1.3281 c 0.7,-6.1015 2.36,-11.1015 4.98,-15.0195 2.62,-3.9101 6.66,-7.0703 12.15,-9.4805 5.48,-2.4101 11.67,-3.6015 18.53,-3.6015 6.11,0 11.48,0.9023 16.15,2.7226 4.67,1.8477 8.16,4.3477 10.44,7.5274 2.27,3.2031 3.42,6.6601 3.42,10.4414 0,3.8398 -1.09,7.1601 -3.32,10.0312 -2.18,2.8672 -5.82,5.25 -10.85,7.1797 -3.26,1.2813 -10.41,3.2696 -21.52,5.961 -11.08,2.6992 -18.87,5.2187 -23.31,7.6093 -5.77,3.0391 -10.08,6.8399 -12.92,11.3594 -2.8,4.5078 -4.21,9.5703 -4.21,15.1797 0,6.1406 1.71,11.898 5.17,17.238 3.46,5.364 8.52,9.422 15.16,12.211 6.67,2.75 14.04,4.141 22.16,4.141 8.98,0 16.85,-1.449 23.71,-4.379 6.84,-2.891 12.1,-7.18 15.78,-12.832 3.67,-5.641 5.66,-12.0587 5.94,-19.2188 L 1866.26,88.5 c -0.84,7.6992 -3.62,13.539 -8.38,17.461 -4.75,3.949 -11.76,5.91 -21.04,5.91 -9.67,0 -16.7,-1.801 -21.16,-5.371 -4.4,-3.578 -6.63,-7.8906 -6.63,-12.9102 0,-4.4101 1.58,-8.0117 4.7,-10.8203 3.1,-2.8398 11.1,-5.7382 24.1,-8.6914 13,-2.9765 21.92,-5.5664 26.75,-7.7773 7.04,-3.3008 12.24,-7.4414 15.59,-12.4414 3.34,-5.0196 5.01,-10.8203 5.01,-17.3399 0,-6.5078 -1.84,-12.6093 -5.52,-18.3398 C 1876,12.4414 1870.7,7.98047 1863.82,4.78125 1856.92,1.60156 1849.16,0 1840.56,0 c -10.95,0 -20.11,1.60156 -27.48,4.83984 -7.4,3.19922 -13.2,8.03126 -17.42,14.49996 -4.19,6.4415 -6.41,13.7696 -6.61,21.9219"
         style="fill:#161315;fill-opacity:1;fill-rule:nonzero;stroke:none"
         id="path44"
         inkscape:connector-curvature="0" /><path
         d="m 1949.87,61.8086 c 0,5.8203 2.06,10.7617 6.17,14.8828 4.08,4.0899 8.97,6.1602 14.71,6.1602 5.76,0 10.69,-2.0703 14.77,-6.1602 4.1,-4.1211 6.15,-9.0625 6.15,-14.8828 0,-5.8398 -2.05,-10.8203 -6.15,-14.9297 -4.08,-4.1484 -9.01,-6.2187 -14.77,-6.2187 -5.74,0 -10.63,2.0703 -14.71,6.2187 -4.11,4.1094 -6.17,9.0899 -6.17,14.9297"
         style="fill:#161315;fill-opacity:1;fill-rule:nonzero;stroke:none"
         id="path46"
         inkscape:connector-curvature="0" /><path
         d="M 2060.24,2.07813 V 124.02 h 87.34 v -14.399 h -71.36 V 72.2891 h 66.83 V 57.9805 h -66.83 v -41.5 h 74.17 V 2.07813 h -90.15"
         style="fill:#161315;fill-opacity:1;fill-rule:nonzero;stroke:none"
         id="path48"
         inkscape:connector-curvature="0" /><path
         d="m 2188.7,70.1914 h 34.38 c 7.28,0 13.01,0.7578 17.12,2.2969 4.14,1.5312 7.26,3.9726 9.4,7.332 2.13,3.3399 3.2,6.9688 3.2,10.918 0,5.7734 -2.06,10.4997 -6.22,14.2227 -4.13,3.73 -10.68,5.57 -19.66,5.57 H 2188.7 Z M 2172.72,2.07813 V 124.02 h 53.56 c 10.77,0 18.95,-1.122 24.55,-3.29 5.6,-2.191 10.07,-6.05 13.45,-11.589 3.35,-5.563 5.01,-11.6918 5.01,-18.4027 0,-8.6602 -2.77,-15.918 -8.33,-21.8594 -5.54,-5.9375 -14.12,-9.707 -25.71,-11.3281 4.24,-2.0391 7.46,-4.0625 9.64,-6.0703 4.68,-4.3203 9.09,-9.7422 13.28,-16.211 l 21.01,-33.19137 h -20.11 L 2243.1,27.4492 c -4.67,7.3125 -8.53,12.9219 -11.56,16.7891 -3.01,3.8906 -5.71,6.6133 -8.1,8.1523 -2.4,1.5586 -4.82,2.6407 -7.29,3.2696 -1.82,0.3593 -4.78,0.5586 -8.91,0.5586 H 2188.7 V 2.07813 h -15.98 v 0"
         style="fill:#161315;fill-opacity:1;fill-rule:nonzero;stroke:none"
         id="path50"
         inkscape:connector-curvature="0" /><path
         d="M 2293.67,2.07813 V 124.02 h 16.01 V 16.4805 h 59.48 V 2.07813 h -75.49"
         style="fill:#161315;fill-opacity:1;fill-rule:nonzero;stroke:none"
         id="path52"
         inkscape:connector-curvature="0" /><path
         d="m 2409.78,52.1602 h 40.97 l -12.62,33.75 c -3.82,10.2617 -6.69,18.6918 -8.55,25.3008 -1.55,-7.84 -3.71,-15.5821 -6.53,-23.3126 z M 2374.93,2.07813 2421.34,124.02 h 17.21 L 2488,2.07813 h -18.23 l -14.1,36.94137 h -50.51 L 2391.91,2.07813 h -16.98 v 0"
         style="fill:#161315;fill-opacity:1;fill-rule:nonzero;stroke:none"
         id="path54"
         inkscape:connector-curvature="0" /><path
         d="M 2500.6,2.07813 V 124.02 h 16.39 l 63.46,-95.7387 V 124.02 h 15.33 V 2.07813 h -16.4 L 2515.93,97.8906 V 2.07813 h -15.33"
         style="fill:#161315;fill-opacity:1;fill-rule:nonzero;stroke:none"
         id="path56"
         inkscape:connector-curvature="0" /><path
         d="m 2679.17,49.9219 v 14.2695 l 51.16,0.0977 V 19.0586 C 2722.49,12.7305 2714.38,7.98047 2706.04,4.78125 2697.69,1.60156 2689.1,0 2680.32,0 c -11.86,0 -22.66,2.55859 -32.34,7.69922 -9.7,5.10938 -17.01,12.55078 -21.96,22.24218 -4.96,9.6992 -7.44,20.5391 -7.44,32.5195 0,11.8672 2.48,22.9375 7.41,33.2188 4.89,10.3083 11.98,17.9493 21.2,22.9493 9.23,4.961 19.86,7.461 31.9,7.461 8.71,0 16.62,-1.418 23.68,-4.281 7.05,-2.848 12.6,-6.821 16.6,-11.93 4.02,-5.109 7.06,-11.7501 9.17,-19.9571 l -14.43,-4.0117 c -1.83,6.2187 -4.08,11.1093 -6.76,14.6488 -2.69,3.562 -6.55,6.39 -11.55,8.531 -4.98,2.121 -10.55,3.211 -16.63,3.211 -7.31,0 -13.64,-1.141 -18.96,-3.379 -5.34,-2.25 -9.61,-5.203 -12.91,-8.871 -3.26,-3.6526 -5.79,-7.6604 -7.61,-12.0627 -3.08,-7.5274 -4.62,-15.6992 -4.62,-24.5274 0,-10.8711 1.85,-19.9609 5.56,-27.2812 3.73,-7.3281 9.13,-12.75 16.22,-16.3008 7.09,-3.5508 14.59,-5.3398 22.54,-5.3398 6.96,0 13.71,1.3711 20.29,4.0703 6.61,2.6601 11.59,5.5195 14.99,8.5898 v 22.7227 h -35.5"
         style="fill:#161315;fill-opacity:1;fill-rule:nonzero;stroke:none"
         id="path58"
         inkscape:connector-curvature="0" /><path
         d="M 2754.25,2.07813 V 124.02 h 87.33 v -14.399 h -71.36 V 72.2891 h 66.83 V 57.9805 h -66.83 v -41.5 h 74.16 V 2.07813 h -90.13"
         style="fill:#161315;fill-opacity:1;fill-rule:nonzero;stroke:none"
         id="path60"
         inkscape:connector-curvature="0" /><path
         d="M 2866.3,2.07813 V 124.02 h 16.4 l 63.45,-95.7387 V 124.02 h 15.33 V 2.07813 h -16.39 L 2881.63,97.8906 V 2.07813 h -15.33"
         style="fill:#161315;fill-opacity:1;fill-rule:nonzero;stroke:none"
         id="path62"
         inkscape:connector-curvature="0" /><path
         d="m 231.664,788.152 c 0,-173.511 0,-347.007 0.981,-521.504 122.25,0 168.937,0 292.164,0 0,-17.726 0,-35.468 0,-54.207 -201.11,0 -324.696,0 -524.809,0 0,192.231 0,384.465 0,576.696 76.8867,0 153.777,0 231.664,-0.985"
         style="fill:#ef3427;fill-opacity:1;fill-rule:evenodd;stroke:none"
         id="path64"
         inkscape:connector-curvature="0" /><path
         d="m 1331.27,788.535 c 0,-49.281 0,-98.582 0,-147.867 -13.8,0 -27.6,0 -41.4,0 -35.5,23.652 -70.98,47.312 -106.48,70.98 -100.54,41.403 -198.14,54.219 -295.734,-6.898 -60.136,-51.262 -79.851,-101.543 -88.73,-178.437 0,-50.286 1.976,-96.614 17.75,-144.915 22.679,-52.246 33.25,-68.593 80.566,-98.168 57.176,-24.652 140.258,-20.128 202.368,-17.179 0,43.379 0,64.082 0,106.461 -53.24,0.988 -105.493,1.996 -157.739,1.996 0,59.137 0,117.301 0,175.445 130.129,0 261.239,0 392.359,0 0,-112.371 0,-224.742 0,-338.113 -228.7,0.988 -457.421,0.988 -686.132,0.988 -10.848,15.762 -21.688,31.543 -32.532,47.301 -61.117,122.25 -69.003,239.562 -41.402,373.633 18.723,61.125 47.316,103.508 85.77,154.773 223.781,0 447.556,0 671.336,0"
         style="fill:#ef3427;fill-opacity:1;fill-rule:evenodd;stroke:none"
         id="path66"
         inkscape:connector-curvature="0" /><path
         d="m 1782.77,262.121 c 23.67,1.969 48.31,2.949 72.94,3.93 100.57,18.73 148.87,78.863 172.53,175.484 0.99,10.844 1.97,21.684 2.95,32.52 -0.98,18.742 -0.98,36.484 -0.98,54.218 -8.87,67.032 -28.59,124.219 -85.77,164.645 -59.15,33.516 -97.59,37.453 -164.63,38.434 -18.73,0 -36.47,0 -54.21,-0.981 0,-155.758 0,-311.512 0,-467.269 18.74,0 37.46,0 57.17,-0.981 z m -290.81,524.445 c 221.81,0.981 443.62,0.981 665.42,0.981 113.37,-100.547 128.16,-273.07 97.6,-412.067 -19.72,-60.132 -51.26,-116.332 -94.65,-162.652 -222.78,0 -445.57,0 -668.37,-0.988 0,192.226 0,383.465 0,574.726 v 0"
         style="fill:#ef3427;fill-opacity:1;fill-rule:evenodd;stroke:none"
         id="path68"
         inkscape:connector-curvature="0" /><path
         d="m 2308.08,785.578 240.53,0.988 180.16,-520.757 C 2856.88,635.148 3079.43,1214.34 3518.57,1298.7 3187.12,1010.02 3099.85,595.52 2954.15,213.801 h -437.08 l -208.99,571.777"
         style="fill:#ef3427;fill-opacity:1;fill-rule:evenodd;stroke:none"
         id="path70"
         inkscape:connector-curvature="0" /></g></g></svg>