<?xml version="1.0" encoding="UTF-8" standalone="no"?>
<!-- Created with Inkscape (http://www.inkscape.org/) -->

<svg
   xmlns:dc="http://purl.org/dc/elements/1.1/"
   xmlns:cc="http://creativecommons.org/ns#"
   xmlns:rdf="http://www.w3.org/1999/02/22-rdf-syntax-ns#"
   xmlns:svg="http://www.w3.org/2000/svg"
   xmlns="http://www.w3.org/2000/svg"
   xmlns:xlink="http://www.w3.org/1999/xlink"
   xmlns:sodipodi="http://sodipodi.sourceforge.net/DTD/sodipodi-0.dtd"
   xmlns:inkscape="http://www.inkscape.org/namespaces/inkscape"
   version="1.1"
   id="svg2"
   xml:space="preserve"
   width="469.05743"
   height="119.42888"
   viewBox="0 0 469.05744 119.42888"
   sodipodi:docname="lgdv-en-cl-mirror.svg"
   inkscape:version="0.92.3 (2405546, 2018-03-11)"><metadata
     id="metadata8"><rdf:RDF><cc:Work
         rdf:about=""><dc:format>image/svg+xml</dc:format><dc:type
           rdf:resource="http://purl.org/dc/dcmitype/StillImage" /><dc:title></dc:title></cc:Work></rdf:RDF></metadata><defs
     id="defs6"><linearGradient
       id="linearGradient5035"
       inkscape:collect="always"><stop
         id="stop5029"
         offset="0"
         style="stop-color:#ef3427;stop-opacity:0.58823532" /><stop
         style="stop-color:#ef3427;stop-opacity:0.47694525"
         offset="0.14630257"
         id="stop5031" /><stop
         id="stop5033"
         offset="1"
         style="stop-color:#ef3427;stop-opacity:0;" /></linearGradient><linearGradient
       inkscape:collect="always"
       xlink:href="#linearGradient5035"
       id="linearGradient5037"
       gradientUnits="userSpaceOnUse"
       x1="149.196"
       y1="108.686"
       x2="149.196"
       y2="56.114975" /></defs><sodipodi:namedview
     pagecolor="#ffffff"
     bordercolor="#666666"
     borderopacity="1"
     objecttolerance="10"
     gridtolerance="10"
     guidetolerance="10"
     inkscape:pageopacity="0"
     inkscape:pageshadow="2"
     inkscape:window-width="2560"
     inkscape:window-height="1376"
     id="namedview4"
     showgrid="false"
     inkscape:zoom="2.140251"
     inkscape:cx="170.57697"
     inkscape:cy="79.220637"
     inkscape:window-x="0"
     inkscape:window-y="27"
     inkscape:window-maximized="1"
     inkscape:current-layer="g10"
     inkscape:snap-bbox="true"
     fit-margin-top="0"
     fit-margin-left="0"
     fit-margin-right="0"
     fit-margin-bottom="0" /><g
     id="g10"
     inkscape:groupmode="layer"
     inkscape:label="ink_ext_XXXXXX"
     transform="matrix(1.3333333,0,0,-1.3333333,-0.16005143,173.15576)"><g
       id="g4955"
       style="fill:#000000;fill-opacity:0.58823532"><path
         d="m 9.92031,125.38602 1.60079,0.40898 c -0.3352,1.32383 -0.9395,2.33281 -1.8086,3.03281 -0.87227,0.69531 -1.93516,1.04219 -3.19531,1.04219 -1.30235,0 -2.35977,-0.26719 -3.17539,-0.80117 -0.81602,-0.53594 -1.4375,-1.31172 -1.8625,-2.325 -0.42461,-1.0168 -0.637894,-2.10664 -0.637894,-3.27188 0,-1.26797 0.238674,-2.375 0.719534,-3.32109 0.48086,-0.94496 1.16484,-1.66286 2.05351,-2.15466 0.88594,-0.491 1.86211,-0.7352 2.92813,-0.7352 1.20937,0 2.22461,0.309 3.04883,0.9309 0.82419,0.6222 1.39809,1.4929 1.72109,2.62107 l -1.57187,0.37422 C 9.45898,120.29812 9.0543,119.654 8.51953,119.2489 c -0.53125,-0.407 -1.20117,-0.609 -2.01055,-0.609 -0.92851,0 -1.70234,0.225 -2.32617,0.6742 -0.62461,0.4508 -1.06328,1.05277 -1.31367,1.81098 -0.25312,0.75508 -0.37969,1.53711 -0.37969,2.33906 0,1.03867 0.14883,1.9418 0.44766,2.7168 0.30078,0.77304 0.76445,1.35195 1.39727,1.73515 0.63281,0.38282 1.3164,0.57383 2.05351,0.57383 0.89453,0 1.65078,-0.26211 2.27266,-0.78203 0.62109,-0.5207 1.04062,-1.2957 1.25976,-2.32187"
         style="fill:#000000;fill-opacity:0.58823532;fill-rule:nonzero;stroke:none;stroke-width:0.1"
         id="path14"
         inkscape:connector-curvature="0" /><path
         d="m 14.6516,123.74891 c 0,1.46914 0.3906,2.62617 1.1726,3.47109 0.7848,0.84609 1.766,1.26992 2.9473,1.26992 1.2043,0 2.1941,-0.42578 2.9707,-1.28203 0.7758,-0.85273 1.1672,-2.06602 1.1672,-3.63594 0,-0.98984 -0.1688,-1.85586 -0.5008,-2.59804 -0.332,-0.73985 -0.8184,-1.31411 -1.457,-1.72301 -0.6411,-0.4059 -1.3582,-0.611 -2.1543,-0.611 -1.1336,0 -2.1071,0.393 -2.9223,1.1789 -0.816,0.78401 -1.2234,2.09612 -1.2234,3.93011 z m -1.6481,-0.027 c 0,-2.02304 0.5371,-3.60703 1.6141,-4.75195 1.0773,-1.1441 2.4668,-1.718 4.1711,-1.718 1.1136,0 2.1207,0.27 3.0156,0.8059 0.8937,0.5402 1.5773,1.2891 2.0473,2.25194 0.4699,0.95899 0.7031,2.05313 0.7031,3.2711 0,1.23789 -0.2445,2.34414 -0.7399,3.31914 -0.4949,0.97578 -1.1953,1.71484 -2.1007,2.21679 -0.9082,0.50313 -1.8852,0.75313 -2.9336,0.75313 -1.1395,0 -2.1543,-0.27617 -3.0492,-0.83203 -0.8973,-0.55391 -1.575,-1.31211 -2.0364,-2.2711 -0.4609,-0.95703 -0.6914,-1.97382 -0.6914,-3.04492 v 0"
         style="fill:#000000;fill-opacity:0.58823532;fill-rule:nonzero;stroke:none;stroke-width:0.1"
         id="path16"
         inkscape:connector-curvature="0" /><path
         d="M 26.566,129.66219 V 117.468 h 2.4082 l 2.8574,8.63403 c 0.2641,0.80391 0.4579,1.40508 0.5766,1.80586 0.1379,-0.44375 0.3516,-1.0957 0.6441,-1.95586 l 2.8911,-8.48403 h 2.1519 v 12.19419 H 36.5535 V 119.4559 l -3.5101,10.20629 H 31.6008 L 28.1074,119.2829 v 10.37929 H 26.566"
         style="fill:#000000;fill-opacity:0.58823532;fill-rule:nonzero;stroke:none;stroke-width:0.1"
         id="path18"
         inkscape:connector-curvature="0" /><path
         d="m 42.2719,123.26492 h 3.1246 c 1.0328,0 1.7668,-0.1918 2.1996,-0.58203 0.4332,-0.38906 0.6496,-0.93281 0.6496,-1.63789 0,-0.51016 -0.1262,-0.94805 -0.3824,-1.3109 -0.2559,-0.3629 -0.5906,-0.602 -1.0098,-0.7192 -0.2695,-0.0699 -0.7652,-0.107 -1.4906,-0.107 h -3.091 z m -1.5977,6.39727 V 117.468 h 4.5567 c 0.8011,0 1.4144,0.0391 1.8367,0.1161 0.5933,0.1 1.091,0.291 1.4933,0.5718 0.3996,0.277 0.7227,0.6719 0.9672,1.175 0.2453,0.5039 0.366,1.05902 0.366,1.6641 0,1.03594 -0.3261,1.91602 -0.9785,2.63281 -0.6558,0.71602 -1.8371,1.07735 -3.5441,1.07735 h -3.0996 v 4.95703 h -1.5977 v 0"
         style="fill:#000000;fill-opacity:0.58823532;fill-rule:nonzero;stroke:none;stroke-width:0.1"
         id="path20"
         inkscape:connector-curvature="0" /><path
         d="m 59.8563,117.468 h 1.6007 v 7.04692 c 0,1.22422 -0.1382,2.19727 -0.4136,2.91797 -0.2758,0.72227 -0.7707,1.30703 -1.4875,1.7582 -0.718,0.45391 -1.6571,0.67891 -2.8215,0.67891 -1.1309,0 -2.0586,-0.19688 -2.7766,-0.59102 -0.7195,-0.39218 -1.2344,-0.96289 -1.5406,-1.70898 -0.3098,-0.74609 -0.4617,-1.76406 -0.4617,-3.05508 V 117.468 h 1.5976 v 7.03794 c 0,1.06015 0.0989,1.84023 0.2926,2.33906 0.1941,0.50312 0.5316,0.88906 1.0043,1.16211 0.4754,0.27187 1.0578,0.40898 1.7438,0.40898 1.1757,0 2.0136,-0.26992 2.5148,-0.80898 0.4977,-0.53711 0.7477,-1.56992 0.7477,-3.10117 V 117.468"
         style="fill:#000000;fill-opacity:0.58823532;fill-rule:nonzero;stroke:none;stroke-width:0.1"
         id="path22"
         inkscape:connector-curvature="0" /><path
         d="M 67.1926,129.66219 V 118.9079 h -3.9801 v -1.4399 h 9.5742 v 1.4399 h -3.9969 v 10.75429 h -1.5972"
         style="fill:#000000;fill-opacity:0.58823532;fill-rule:nonzero;stroke:none;stroke-width:0.1"
         id="path24"
         inkscape:connector-curvature="0" /><path
         d="M 74.4602,129.66219 V 117.468 h 8.7332 v 1.4399 h -7.136 v 3.73319 h 6.6828 v 1.43086 h -6.6828 v 4.15 h 7.4168 v 1.44024 h -9.014"
         style="fill:#000000;fill-opacity:0.58823532;fill-rule:nonzero;stroke:none;stroke-width:0.1"
         id="path26"
         inkscape:connector-curvature="0" /><path
         d="m 87.3051,122.85086 h 3.4375 c 0.7285,0 1.3023,-0.0758 1.7125,-0.22969 0.4137,-0.15312 0.7262,-0.39726 0.9398,-0.7332 0.2137,-0.33399 0.3203,-0.69688 0.3203,-1.0918 0,-0.57734 -0.2054,-1.04997 -0.6214,-1.42227 -0.4137,-0.373 -1.0688,-0.557 -1.9661,-0.557 h -3.8226 z m -1.5977,6.81133 V 117.468 h 5.3555 c 1.0773,0 1.8957,0.1122 2.4559,0.329 0.5593,0.2191 1.0066,0.605 1.3441,1.1589 0.3348,0.5563 0.5008,1.16918 0.5008,1.84027 0,0.86602 -0.2758,1.5918 -0.8328,2.18594 -0.5539,0.59375 -1.4118,0.9707 -2.5704,1.13281 0.4243,0.20391 0.745,0.40625 0.9641,0.60703 0.4676,0.43203 0.909,0.97422 1.3281,1.6211 l 2.1008,3.31914 h -2.0113 l -1.5973,-2.53711 c -0.4668,-0.73125 -0.8523,-1.29219 -1.1554,-1.67891 -0.3012,-0.38906 -0.5715,-0.66133 -0.8102,-0.81523 -0.2395,-0.15586 -0.4813,-0.26407 -0.7285,-0.32696 -0.1832,-0.0359 -0.4785,-0.0559 -0.8922,-0.0559 h -1.8535 v 5.41407 h -1.5977 v 0"
         style="fill:#000000;fill-opacity:0.58823532;fill-rule:nonzero;stroke:none;stroke-width:0.1"
         id="path28"
         inkscape:connector-curvature="0" /><path
         d="m 108.211,124.87781 v -1.42695 l 5.117,-0.01 v 4.52305 c -0.785,0.63281 -1.595,1.10781 -2.431,1.42773 -0.834,0.31797 -1.692,0.47813 -2.57,0.47813 -1.187,0 -2.267,-0.25586 -3.234,-0.76992 -0.971,-0.51094 -1.702,-1.25508 -2.197,-2.22422 -0.496,-0.96992 -0.743,-2.05391 -0.743,-3.25195 0,-1.18672 0.247,-2.29375 0.74,-3.32188 0.489,-1.03083 1.198,-1.79493 2.121,-2.29493 0.922,-0.4961 1.985,-0.7461 3.189,-0.7461 0.872,0 1.662,0.1418 2.368,0.4281 0.706,0.2848 1.261,0.6821 1.66,1.193 0.402,0.5109 0.706,1.17501 0.917,1.99571 l -1.443,0.40117 c -0.183,-0.62187 -0.408,-1.11093 -0.675,-1.46488 -0.27,-0.3562 -0.655,-0.639 -1.156,-0.8531 -0.498,-0.2121 -1.055,-0.3211 -1.663,-0.3211 -0.731,0 -1.364,0.1141 -1.895,0.3379 -0.535,0.225 -0.962,0.5203 -1.291,0.8871 -0.326,0.36526 -0.58,0.76604 -0.762,1.20627 -0.307,0.75274 -0.462,1.56992 -0.462,2.45274 0,1.08711 0.186,1.99609 0.557,2.72812 0.372,0.73281 0.912,1.275 1.621,1.63008 0.709,0.35508 1.459,0.53398 2.255,0.53398 0.695,0 1.37,-0.13711 2.028,-0.40703 0.661,-0.26601 1.159,-0.55195 1.499,-0.85898 v -2.27227 h -3.55"
         style="fill:#000000;fill-opacity:0.58823532;fill-rule:nonzero;stroke:none;stroke-width:0.1"
         id="path30"
         inkscape:connector-curvature="0" /><path
         d="m 117.308,122.85086 h 3.437 c 0.729,0 1.302,-0.0758 1.713,-0.22969 0.414,-0.15312 0.726,-0.39726 0.939,-0.7332 0.214,-0.33399 0.321,-0.69688 0.321,-1.0918 0,-0.57734 -0.205,-1.04997 -0.621,-1.42227 -0.414,-0.373 -1.069,-0.557 -1.967,-0.557 h -3.822 z m -1.598,6.81133 V 117.468 h 5.356 c 1.077,0 1.895,0.1122 2.455,0.329 0.56,0.2191 1.007,0.605 1.345,1.1589 0.335,0.5563 0.5,1.16918 0.5,1.84027 0,0.86602 -0.275,1.5918 -0.832,2.18594 -0.555,0.59375 -1.412,0.9707 -2.571,1.13281 0.425,0.20391 0.745,0.40625 0.965,0.60703 0.467,0.43203 0.908,0.97422 1.327,1.6211 l 2.101,3.31914 h -2.011 l -1.597,-2.53711 c -0.467,-0.73125 -0.852,-1.29219 -1.156,-1.67891 -0.301,-0.38906 -0.571,-0.66133 -0.81,-0.81523 -0.239,-0.15586 -0.481,-0.26407 -0.729,-0.32696 -0.182,-0.0359 -0.478,-0.0559 -0.891,-0.0559 h -1.854 v 5.41407 h -1.598 v 0"
         style="fill:#000000;fill-opacity:0.58823532;fill-rule:nonzero;stroke:none;stroke-width:0.1"
         id="path32"
         inkscape:connector-curvature="0" /><path
         d="m 130.03,124.65398 h 4.098 l -1.263,-3.375 c -0.383,-1.02617 -0.67,-1.86918 -0.855,-2.53008 -0.155,0.784 -0.371,1.55821 -0.653,2.33126 z m -3.485,5.00821 4.641,-12.19419 h 1.721 l 4.945,12.19419 h -1.823 l -1.409,-3.69414 h -5.052 l -1.324,3.69414 h -1.699 v 0"
         style="fill:#000000;fill-opacity:0.58823532;fill-rule:nonzero;stroke:none;stroke-width:0.1"
         id="path34"
         inkscape:connector-curvature="0" /><path
         d="m 140.726,123.26492 h 3.125 c 1.032,0 1.766,-0.1918 2.199,-0.58203 0.434,-0.38906 0.65,-0.93281 0.65,-1.63789 0,-0.51016 -0.126,-0.94805 -0.382,-1.3109 -0.256,-0.3629 -0.591,-0.602 -1.01,-0.7192 -0.27,-0.0699 -0.765,-0.107 -1.491,-0.107 h -3.091 z m -1.598,6.39727 V 117.468 h 4.557 c 0.802,0 1.415,0.0391 1.837,0.1161 0.593,0.1 1.091,0.291 1.494,0.5718 0.399,0.277 0.722,0.6719 0.967,1.175 0.245,0.5039 0.366,1.05902 0.366,1.6641 0,1.03594 -0.327,1.91602 -0.979,2.63281 -0.656,0.71602 -1.837,1.07735 -3.544,1.07735 h -3.1 v 4.95703 h -1.598 v 0"
         style="fill:#000000;fill-opacity:0.58823532;fill-rule:nonzero;stroke:none;stroke-width:0.1"
         id="path36"
         inkscape:connector-curvature="0" /><path
         d="M 150.433,129.66219 V 117.468 h 1.6 v 5.00786 h 6.278 V 117.468 h 1.601 v 12.19419 h -1.601 v -5.7461 h -6.278 v 5.7461 h -1.6"
         style="fill:#000000;fill-opacity:0.58823532;fill-rule:nonzero;stroke:none;stroke-width:0.1"
         id="path38"
         inkscape:connector-curvature="0" /><path
         d="M 162.845,129.66219 V 117.468 h 1.598 v 12.19419 h -1.598"
         style="fill:#000000;fill-opacity:0.58823532;fill-rule:nonzero;stroke:none;stroke-width:0.1"
         id="path40"
         inkscape:connector-curvature="0" /><path
         d="m 175.879,125.38602 1.6,0.40898 c -0.334,1.32383 -0.939,2.33281 -1.808,3.03281 -0.872,0.69531 -1.936,1.04219 -3.195,1.04219 -1.303,0 -2.361,-0.26719 -3.176,-0.80117 -0.816,-0.53594 -1.438,-1.31172 -1.862,-2.325 -0.425,-1.0168 -0.638,-2.10664 -0.638,-3.27188 0,-1.26797 0.238,-2.375 0.72,-3.32109 0.48,-0.94496 1.164,-1.66286 2.052,-2.15466 0.887,-0.491 1.863,-0.7352 2.929,-0.7352 1.209,0 2.225,0.309 3.049,0.9309 0.824,0.6222 1.397,1.4929 1.721,2.62107 l -1.572,0.37422 c -0.282,-0.88907 -0.686,-1.53319 -1.221,-1.93829 -0.532,-0.407 -1.201,-0.609 -2.011,-0.609 -0.928,0 -1.702,0.225 -2.326,0.6742 -0.624,0.4508 -1.063,1.05277 -1.314,1.81098 -0.253,0.75508 -0.38,1.53711 -0.38,2.33906 0,1.03867 0.15,1.9418 0.449,2.7168 0.3,0.77304 0.764,1.35195 1.397,1.73515 0.633,0.38282 1.316,0.57383 2.053,0.57383 0.894,0 1.651,-0.26211 2.273,-0.78203 0.621,-0.5207 1.04,-1.2957 1.26,-2.32187"
         style="fill:#000000;fill-opacity:0.58823532;fill-rule:nonzero;stroke:none;stroke-width:0.1"
         id="path42"
         inkscape:connector-curvature="0" /><path
         d="m 178.905,125.74383 1.508,-0.13281 c 0.07,0.61015 0.236,1.11015 0.498,1.50195 0.262,0.39101 0.666,0.70703 1.215,0.94805 0.548,0.24101 1.167,0.36015 1.853,0.36015 0.611,0 1.148,-0.0902 1.615,-0.27226 0.467,-0.18477 0.816,-0.43477 1.044,-0.75274 0.227,-0.32031 0.342,-0.66601 0.342,-1.04414 0,-0.38398 -0.109,-0.71601 -0.332,-1.00312 -0.218,-0.28672 -0.582,-0.525 -1.085,-0.71797 -0.326,-0.12813 -1.041,-0.32696 -2.152,-0.5961 -1.108,-0.26992 -1.887,-0.52187 -2.331,-0.76093 -0.577,-0.30391 -1.008,-0.68399 -1.292,-1.13594 -0.28,-0.45078 -0.421,-0.95703 -0.421,-1.51797 0,-0.61406 0.171,-1.1898 0.517,-1.7238 0.346,-0.5364 0.852,-0.9422 1.516,-1.2211 0.667,-0.275 1.404,-0.4141 2.216,-0.4141 0.898,0 1.685,0.1449 2.371,0.4379 0.684,0.2891 1.21,0.718 1.578,1.2832 0.367,0.5641 0.566,1.20587 0.594,1.92188 l -1.533,0.11602 c -0.084,-0.76992 -0.362,-1.3539 -0.838,-1.7461 -0.475,-0.3949 -1.176,-0.591 -2.104,-0.591 -0.967,0 -1.67,0.1801 -2.116,0.5371 -0.44,0.3578 -0.663,0.78906 -0.663,1.29102 0,0.44101 0.158,0.80117 0.47,1.08203 0.31,0.28398 1.11,0.57382 2.41,0.86914 1.3,0.29765 2.192,0.55664 2.675,0.77773 0.704,0.33008 1.224,0.74414 1.559,1.24414 0.334,0.50196 0.501,1.08203 0.501,1.73399 0,0.65078 -0.184,1.26093 -0.552,1.83398 -0.368,0.57383 -0.898,1.01992 -1.586,1.33984 -0.69,0.31797 -1.466,0.47813 -2.326,0.47813 -1.095,0 -2.011,-0.16016 -2.748,-0.48398 -0.74,-0.31993 -1.32,-0.80313 -1.742,-1.45 -0.419,-0.64415 -0.641,-1.37696 -0.661,-2.19219"
         style="fill:#000000;fill-opacity:0.58823532;fill-rule:nonzero;stroke:none;stroke-width:0.1"
         id="path44"
         inkscape:connector-curvature="0" /><path
         d="m 194.987,123.68914 c 0,-0.58203 0.206,-1.07617 0.617,-1.48828 0.408,-0.40899 0.897,-0.61602 1.471,-0.61602 0.576,0 1.069,0.20703 1.477,0.61602 0.41,0.41211 0.615,0.90625 0.615,1.48828 0,0.58398 -0.205,1.08203 -0.615,1.49297 -0.408,0.41484 -0.901,0.62187 -1.477,0.62187 -0.574,0 -1.063,-0.20703 -1.471,-0.62187 -0.411,-0.41094 -0.617,-0.90899 -0.617,-1.49297"
         style="fill:#000000;fill-opacity:0.58823532;fill-rule:nonzero;stroke:none;stroke-width:0.1"
         id="path46"
         inkscape:connector-curvature="0" /><path
         d="M 206.024,129.66219 V 117.468 h 8.734 v 1.4399 h -7.136 v 3.73319 h 6.683 v 1.43086 h -6.683 v 4.15 h 7.417 v 1.44024 h -9.015"
         style="fill:#000000;fill-opacity:0.58823532;fill-rule:nonzero;stroke:none;stroke-width:0.1"
         id="path48"
         inkscape:connector-curvature="0" /><path
         d="m 218.87,122.85086 h 3.438 c 0.728,0 1.301,-0.0758 1.712,-0.22969 0.414,-0.15312 0.726,-0.39726 0.94,-0.7332 0.213,-0.33399 0.32,-0.69688 0.32,-1.0918 0,-0.57734 -0.206,-1.04997 -0.622,-1.42227 -0.413,-0.373 -1.068,-0.557 -1.966,-0.557 h -3.822 z m -1.598,6.81133 V 117.468 h 5.356 c 1.077,0 1.895,0.1122 2.455,0.329 0.56,0.2191 1.007,0.605 1.345,1.1589 0.335,0.5563 0.501,1.16918 0.501,1.84027 0,0.86602 -0.277,1.5918 -0.833,2.18594 -0.554,0.59375 -1.412,0.9707 -2.571,1.13281 0.424,0.20391 0.746,0.40625 0.964,0.60703 0.468,0.43203 0.909,0.97422 1.328,1.6211 l 2.101,3.31914 h -2.011 l -1.597,-2.53711 c -0.467,-0.73125 -0.853,-1.29219 -1.156,-1.67891 -0.301,-0.38906 -0.571,-0.66133 -0.81,-0.81523 -0.24,-0.15586 -0.482,-0.26407 -0.729,-0.32696 -0.182,-0.0359 -0.478,-0.0559 -0.891,-0.0559 h -1.854 v 5.41407 h -1.598 v 0"
         style="fill:#000000;fill-opacity:0.58823532;fill-rule:nonzero;stroke:none;stroke-width:0.1"
         id="path50"
         inkscape:connector-curvature="0" /><path
         d="M 229.367,129.66219 V 117.468 h 1.601 v 10.75395 h 5.948 v 1.44024 h -7.549"
         style="fill:#000000;fill-opacity:0.58823532;fill-rule:nonzero;stroke:none;stroke-width:0.1"
         id="path52"
         inkscape:connector-curvature="0" /><path
         d="m 240.978,124.65398 h 4.097 l -1.262,-3.375 c -0.382,-1.02617 -0.669,-1.86918 -0.855,-2.53008 -0.155,0.784 -0.371,1.55821 -0.653,2.33126 z m -3.485,5.00821 4.641,-12.19419 h 1.721 l 4.945,12.19419 h -1.823 l -1.41,-3.69414 h -5.051 l -1.325,3.69414 h -1.698 v 0"
         style="fill:#000000;fill-opacity:0.58823532;fill-rule:nonzero;stroke:none;stroke-width:0.1"
         id="path54"
         inkscape:connector-curvature="0" /><path
         d="M 250.06,129.66219 V 117.468 h 1.639 l 6.346,9.57387 V 117.468 h 1.533 v 12.19419 h -1.64 l -6.345,-9.58125 v 9.58125 h -1.533"
         style="fill:#000000;fill-opacity:0.58823532;fill-rule:nonzero;stroke:none;stroke-width:0.1"
         id="path56"
         inkscape:connector-curvature="0" /><path
         d="m 267.917,124.87781 v -1.42695 l 5.116,-0.01 v 4.52305 c -0.784,0.63281 -1.595,1.10781 -2.429,1.42773 -0.835,0.31797 -1.694,0.47813 -2.572,0.47813 -1.186,0 -2.266,-0.25586 -3.234,-0.76992 -0.97,-0.51094 -1.701,-1.25508 -2.196,-2.22422 -0.496,-0.96992 -0.744,-2.05391 -0.744,-3.25195 0,-1.18672 0.248,-2.29375 0.741,-3.32188 0.489,-1.03083 1.198,-1.79493 2.12,-2.29493 0.923,-0.4961 1.986,-0.7461 3.19,-0.7461 0.871,0 1.662,0.1418 2.368,0.4281 0.705,0.2848 1.26,0.6821 1.66,1.193 0.402,0.5109 0.706,1.17501 0.917,1.99571 l -1.443,0.40117 c -0.183,-0.62187 -0.408,-1.11093 -0.676,-1.46488 -0.269,-0.3562 -0.655,-0.639 -1.155,-0.8531 -0.498,-0.2121 -1.055,-0.3211 -1.663,-0.3211 -0.731,0 -1.364,0.1141 -1.896,0.3379 -0.534,0.225 -0.961,0.5203 -1.291,0.8871 -0.326,0.36526 -0.579,0.76604 -0.761,1.20627 -0.308,0.75274 -0.462,1.56992 -0.462,2.45274 0,1.08711 0.185,1.99609 0.556,2.72812 0.373,0.73281 0.913,1.275 1.622,1.63008 0.709,0.35508 1.459,0.53398 2.254,0.53398 0.696,0 1.371,-0.13711 2.029,-0.40703 0.661,-0.26601 1.159,-0.55195 1.499,-0.85898 v -2.27227 h -3.55"
         style="fill:#000000;fill-opacity:0.58823532;fill-rule:nonzero;stroke:none;stroke-width:0.1"
         id="path58"
         inkscape:connector-curvature="0" /><path
         d="M 275.425,129.66219 V 117.468 h 8.733 v 1.4399 h -7.136 v 3.73319 h 6.683 v 1.43086 h -6.683 v 4.15 h 7.416 v 1.44024 h -9.013"
         style="fill:#000000;fill-opacity:0.58823532;fill-rule:nonzero;stroke:none;stroke-width:0.1"
         id="path60"
         inkscape:connector-curvature="0" /><path
         d="M 286.63,129.66219 V 117.468 h 1.64 l 6.345,9.57387 V 117.468 h 1.533 v 12.19419 h -1.639 l -6.346,-9.58125 v 9.58125 h -1.533"
         style="fill:#000000;fill-opacity:0.58823532;fill-rule:nonzero;stroke:none;stroke-width:0.1"
         id="path62"
         inkscape:connector-curvature="0" /></g><g
       id="g4918"
       style="fill:url(#linearGradient5037);fill-opacity:1"><path
         d="m 23.1664,51.0548 c 0,17.3511 0,34.7007 0.0981,52.1504 12.225,0 16.8937,0 29.2164,0 0,1.7726 0,3.5468 0,5.4207 -20.111,0 -32.4696,0 -52.4809,0 0,-19.2231 0,-38.4465 0,-57.6696 7.68867,0 15.3777,0 23.1664,0.0985"
         style="fill:url(#linearGradient5037);fill-opacity:1;fill-rule:evenodd;stroke:none;stroke-width:0.1"
         id="path64"
         inkscape:connector-curvature="0" /><path
         d="m 133.127,51.0165 c 0,4.9281 0,9.8582 0,14.7867 -1.38,0 -2.76,0 -4.14,0 -3.55,-2.3652 -7.098,-4.7312 -10.648,-7.098 -10.054,-4.1403 -19.814,-5.4219 -29.5734,0.6898 -6.0136,5.1262 -7.9851,10.1543 -8.873,17.8437 0,5.0286 0.1976,9.6614 1.775,14.4915 2.2679,5.2246 3.325,6.8593 8.0566,9.8168 5.7176,2.4652 14.0258,2.0128 20.2368,1.7179 0,-4.3379 0,-6.4082 0,-10.6461 -5.324,-0.0988 -10.5493,-0.1996 -15.7739,-0.1996 0,-5.9137 0,-11.7301 0,-17.5445 13.0129,0 26.1239,0 39.2359,0 0,11.2371 0,22.4742 0,33.8113 -22.87,-0.0988 -45.7421,-0.0988 -68.6132,-0.0988 -1.0848,-1.5762 -2.1688,-3.1543 -3.2532,-4.7301 -6.1117,-12.225 -6.9003,-23.9562 -4.1402,-37.3633 1.8723,-6.1125 4.7316,-10.3508 8.577,-15.4773 22.3781,0 44.7556,0 67.1336,0"
         style="fill:url(#linearGradient5037);fill-opacity:1;fill-rule:evenodd;stroke:none;stroke-width:0.1"
         id="path66"
         inkscape:connector-curvature="0" /><path
         d="m 178.277,103.6579 c 2.367,-0.1969 4.831,-0.2949 7.294,-0.393 10.057,-1.873 14.887,-7.8863 17.253,-17.5484 0.099,-1.0844 0.197,-2.1684 0.295,-3.252 -0.098,-1.8742 -0.098,-3.6484 -0.098,-5.4218 -0.887,-6.7032 -2.859,-12.4219 -8.577,-16.4645 -5.915,-3.3516 -9.759,-3.7453 -16.463,-3.8434 -1.873,0 -3.647,0 -5.421,0.0981 0,15.5758 0,31.1512 0,46.7269 1.874,0 3.746,0 5.717,0.0981 z M 149.196,51.2134 c 22.181,-0.0981 44.362,-0.0981 66.542,-0.0981 11.337,10.0547 12.816,27.307 9.76,41.2067 -1.972,6.0132 -5.126,11.6332 -9.465,16.2652 -22.278,0 -44.557,0 -66.837,0.0988 0,-19.2226 0,-38.3465 0,-57.4726 v 0"
         style="fill:url(#linearGradient5037);fill-opacity:1;fill-rule:evenodd;stroke:none;stroke-width:0.1"
         id="path68"
         inkscape:connector-curvature="0" /><path
         d="m 230.808,51.3122 24.053,-0.0988 18.016,52.0757 C 285.688,66.3552 307.943,8.436 351.857,0 318.712,28.868 309.985,70.318 295.415,108.4899 H 251.707 L 230.808,51.3122"
         style="fill:url(#linearGradient5037);fill-opacity:1;fill-rule:evenodd;stroke:none;stroke-width:0.1"
         id="path70"
         inkscape:connector-curvature="0" /></g></g></svg>